<?xml version="1.0" encoding="UTF-8"?>
<svg width="1024" height="1024" viewBox="0 0 1024 1024" fill="none" xmlns="http://www.w3.org/2000/svg">
  <defs>
    <linearGradient id="bg" x1="120" y1="120" x2="920" y2="920" gradientUnits="userSpaceOnUse">
      <stop offset="0" stop-color="#F3F6FF"/>
      <stop offset="0.55" stop-color="#EAF2FF"/>
      <stop offset="1" stop-color="#E6FAF7"/>
    </linearGradient>
    <linearGradient id="aurora" x1="220" y1="220" x2="820" y2="820" gradientUnits="userSpaceOnUse">
      <stop offset="0" stop-color="#8B5CF6"/>
      <stop offset="0.50" stop-color="#3B82F6"/>
      <stop offset="1" stop-color="#22C55E"/>
    </linearGradient>

    <!-- Softer, cloud-like tint for the playhead capsule -->
    <linearGradient id="capsuleTint" x1="460" y1="304" x2="564" y2="348" gradientUnits="userSpaceOnUse">
      <stop offset="0" stop-color="#C4B5FD"/>
      <stop offset="0.50" stop-color="#93C5FD"/>
      <stop offset="1" stop-color="#86EFAC"/>
    </linearGradient>

    <!-- Blend from capsule tint into a stable line color near the head -->
    <linearGradient id="playheadLine" x1="512" y1="304" x2="512" y2="742" gradientUnits="userSpaceOnUse">
      <stop offset="0" stop-color="#C4B5FD"/>
      <stop offset="0.10" stop-color="#93C5FD"/>
      <stop offset="0.18" stop-color="#3B82F6"/>
      <stop offset="1" stop-color="#3B82F6"/>
    </linearGradient>
    <filter id="glow" x="0" y="0" width="1024" height="1024" filterUnits="userSpaceOnUse" color-interpolation-filters="sRGB">
      <feGaussianBlur stdDeviation="8" result="b"/>
      <feColorMatrix in="b" type="matrix" values="1 0 0 0 0  0 1 0 0 0  0 0 1 0 0  0 0 0 0.28 0" result="g"/>
      <feMerge>
        <feMergeNode in="g"/>
        <feMergeNode in="SourceGraphic"/>
      </feMerge>
    </filter>

    <!-- Subtle depth for the translucent timeline plate (Apple-like) -->
    <filter id="plateShadow" x="0" y="0" width="1024" height="1024" filterUnits="userSpaceOnUse" color-interpolation-filters="sRGB">
      <feDropShadow dx="0" dy="10" stdDeviation="14" flood-color="#0F172A" flood-opacity="0.14"/>
      <feDropShadow dx="0" dy="2" stdDeviation="4" flood-color="#0F172A" flood-opacity="0.10"/>
    </filter>
  </defs>

  <!-- Background -->
  <rect x="72" y="72" width="880" height="880" rx="196" fill="url(#bg)"/>

  <!-- Timeline rails (translucent plate) -->
  <g filter="url(#plateShadow)">
    <rect x="190" y="356" width="644" height="312" rx="72" fill="#FFFFFF" opacity="0.68" stroke="#0F172A" stroke-opacity="0.10" stroke-width="2"/>
    <rect x="214" y="380" width="596" height="264" rx="60" fill="#FFFFFF" opacity="0.50" stroke="#0F172A" stroke-opacity="0.08" stroke-width="2"/>
  </g>

  <!-- Clips (rounded blocks) -->
  <g opacity="0.95">
    <rect x="246" y="420" width="190" height="86" rx="26" fill="#0F172A" opacity="0.10"/>
    <rect x="458" y="420" width="316" height="86" rx="26" fill="#0F172A" opacity="0.12"/>

    <rect x="246" y="538" width="268" height="86" rx="26" fill="#0F172A" opacity="0.09"/>
    <rect x="534" y="538" width="240" height="86" rx="26" fill="#0F172A" opacity="0.11"/>
  </g>

  <!-- Playhead / cut line -->
  <g filter="url(#glow)">
    <!-- Slimmer, more macOS-like playhead -->
    <rect x="502" y="338" width="20" height="404" rx="10" fill="url(#playheadLine)"/>
    <!-- Cloud-shaped head -->
    <path d="M540 348c17 0 30-11 30-25 0-12-9-22-22-24-3-18-20-31-41-31-18 0-34 10-40 24h-4c-18 0-33 12-33 28 0 16 15 28 38 28h72Z" fill="url(#capsuleTint)" transform="translate(10 0)"/>
  </g>

</svg>
